<svg width="50" height="50" viewBox="0 0 50 50" fill="none" xmlns="http://www.w3.org/2000/svg">
<circle cx="25" cy="25" r="24" stroke="#000000" stroke-width="2"/>
<path fill-rule="evenodd" clip-rule="evenodd" d="M14.3934 34.4056C14.0029 34.7961 14.0029 35.4293 14.3934 35.8198C14.7839 36.2103 15.4171 36.2103 15.8076 35.8198L25 26.6274L34.1924 35.8198C34.5829 36.2103 35.2161 36.2103 35.6066 35.8198C35.9971 35.4293 35.9971 34.7961 35.6066 34.4056L26.4142 25.2132L35.6066 16.0208C35.9971 15.6303 35.9971 14.9971 35.6066 14.6066C35.2161 14.2161 34.5829 14.2161 34.1924 14.6066L25 23.799L15.8076 14.6066C15.4171 14.2161 14.7839 14.2161 14.3934 14.6066C14.0029 14.9971 14.0029 15.6303 14.3934 16.0208L23.5858 25.2132L14.3934 34.4056Z" fill="#000000"/>
</svg>
