<svg width="20" height="18" viewBox="0 0 20 18" fill="none" xmlns="http://www.w3.org/2000/svg">
<path fill-rule="evenodd" clip-rule="evenodd" d="M12.5308 1.5C11.3761 -0.5 8.4893 -0.5 7.3346 1.5L0.4064 13.5C-0.748301 15.5 0.695073 18 3.00447 18H16.8609C19.1703 18 20.6137 15.5 19.459 13.5L12.5308 1.5ZM8.93267 6C8.93267 5.44772 9.38038 5 9.93267 5C10.485 5 10.9327 5.44772 10.9327 6V10C10.9327 10.5523 10.485 11 9.93267 11C9.38038 11 8.93267 10.5523 8.93267 10V6ZM8.93267 14C8.93267 13.4477 9.38038 13 9.93267 13C10.485 13 10.9327 13.4477 10.9327 14C10.9327 14.5523 10.485 15 9.93267 15C9.38038 15 8.93267 14.5523 8.93267 14Z" fill="#FFA439"/>
</svg>
