<svg width="14" height="26" viewBox="0 0 14 26" fill="none" xmlns="http://www.w3.org/2000/svg">
<path opacity="0.2" fill-rule="evenodd" clip-rule="evenodd" d="M11.8682 14.9576C12.1435 15.2941 12.3882 15.6306 12.5718 15.9976C12.8471 16.4871 13.0612 17.0071 13.2447 17.6188C13.3976 18.1694 13.4588 18.72 13.4588 19.3012C13.4588 20.2188 13.2753 21.0753 12.9388 21.8706C12.5718 22.6965 12.0824 23.4306 11.4706 24.0424C10.2776 25.2353 8.59529 26 6.72941 26C5.81176 26 4.95529 25.8165 4.16 25.48C3.33412 25.1129 2.6 24.6235 1.98824 24.0118C1.37647 23.4 0.856471 22.6659 0.52 21.84C0.183529 21.0447 0 20.1882 0 19.2706C0 18.6894 0.0611764 18.1388 0.214118 17.5882C0.336471 17.0376 0.550588 16.5176 0.825882 16.0282C1.04 15.6612 1.25412 15.3247 1.52941 14.9882C1.71294 14.7435 1.89647 14.5294 2.11059 14.3459V4.58823C2.11059 3.97647 2.23294 3.39529 2.44706 2.84471C3.18118 1.10118 4.80235 0 6.69882 0C8.59529 0 10.2165 1.10118 10.9506 2.84471C11.1647 3.36471 11.2871 3.97647 11.2871 4.58823V14.3153C11.3788 14.4224 11.4782 14.5294 11.5777 14.6365C11.6771 14.7435 11.7765 14.8506 11.8682 14.9576ZM9.6047 16.5176C9.81882 16.7623 10.0329 17.0071 10.1859 17.3129C10.3388 17.6188 10.4612 17.9247 10.5529 18.2306C10.6447 18.5365 10.6753 18.8729 10.6753 19.2094C10.6753 19.76 10.5529 20.28 10.3694 20.7388C10.1859 21.2282 9.88 21.6565 9.51294 22.0235C9.14588 22.3906 8.71764 22.6659 8.22823 22.88C7.73882 23.0635 7.21882 23.1859 6.69882 23.1859C6.14823 23.1859 5.62823 23.0635 5.16941 22.88C4.68 22.6965 4.25176 22.3906 3.8847 22.0235C3.51764 21.6565 3.24235 21.2282 3.02823 20.7388C2.8447 20.2494 2.72235 19.7294 2.72235 19.2094C2.72235 18.8729 2.75294 18.5365 2.8447 18.2306C2.93647 17.9247 3.05882 17.5882 3.21176 17.3129C3.3647 17.0376 3.54823 16.7623 3.79294 16.5176C4.00706 16.2729 4.28235 16.0588 4.55764 15.8753L4.83294 15.6918V15.3859V11.6235C4.83294 10.8588 5.29176 10.2165 5.99529 9.91058C6.20941 9.81882 6.45412 9.75764 6.69882 9.75764C6.94353 9.75764 7.18823 9.81882 7.40235 9.91058C8.13647 10.1859 8.5647 10.8588 8.5647 11.6235V15.3859V15.6918L8.84 15.8753C9.11529 16.0588 9.36 16.2729 9.6047 16.5176Z" fill="#42415B"/>
</svg>
